<?xml version="1.0" encoding="utf-8" standalone="no"?>
<!DOCTYPE svg PUBLIC "-//W3C//DTD SVG 1.1//EN"
  "http://www.w3.org/Graphics/SVG/1.1/DTD/svg11.dtd">
<svg xmlns:xlink="http://www.w3.org/1999/xlink" width="720pt" height="576pt" viewBox="0 0 720 576" xmlns="http://www.w3.org/2000/svg" version="1.1">
 <metadata>
  <rdf:RDF xmlns:dc="http://purl.org/dc/elements/1.1/" xmlns:cc="http://creativecommons.org/ns#" xmlns:rdf="http://www.w3.org/1999/02/22-rdf-syntax-ns#">
   <cc:Work>
    <dc:type rdf:resource="http://purl.org/dc/dcmitype/StillImage"/>
    <dc:date>2025-05-15T13:49:59.101738</dc:date>
    <dc:format>image/svg+xml</dc:format>
    <dc:creator>
     <cc:Agent>
      <dc:title>Matplotlib v3.9.4, https://matplotlib.org/</dc:title>
     </cc:Agent>
    </dc:creator>
   </cc:Work>
  </rdf:RDF>
 </metadata>
 <defs>
  <style type="text/css">*{stroke-linejoin: round; stroke-linecap: butt}</style>
 </defs>
 <g id="figure_1">
  <g id="patch_1">
   <path d="M 0 576 
L 720 576 
L 720 0 
L 0 0 
z
" style="fill: #ffffff"/>
  </g>
  <g id="axes_1">
   <g id="patch_2">
    <path d="M 55.055 528.28 
L 697.455 528.28 
L 697.455 31.2 
L 55.055 31.2 
z
" style="fill: #e5e5e5"/>
   </g>
   <g id="matplotlib.axis_1">
    <g id="xtick_1">
     <g id="line2d_1">
      <path d="M 55.055 528.28 
L 55.055 31.2 
" clip-path="url(#p2184194587)" style="fill: none; stroke: #ffffff; stroke-width: 0.8; stroke-linecap: square"/>
     </g>
     <g id="line2d_2">
      <defs>
       <path id="mdefd34997f" d="M 0 0 
L 0 3.5 
" style="stroke: #555555; stroke-width: 0.8"/>
      </defs>
      <g>
       <use xlink:href="#mdefd34997f" x="55.055" y="528.28" style="fill: #555555; stroke: #555555; stroke-width: 0.8"/>
      </g>
     </g>
     <g id="text_1">
      <!-- 0.4 -->
      <g style="fill: #555555" transform="translate(45.513125 544.398125) scale(0.12 -0.12)">
       <defs>
        <path id="DejaVuSans-30" d="M 2034 4250 
Q 1547 4250 1301 3770 
Q 1056 3291 1056 2328 
Q 1056 1369 1301 889 
Q 1547 409 2034 409 
Q 2525 409 2770 889 
Q 3016 1369 3016 2328 
Q 3016 3291 2770 3770 
Q 2525 4250 2034 4250 
z
M 2034 4750 
Q 2819 4750 3233 4129 
Q 3647 3509 3647 2328 
Q 3647 1150 3233 529 
Q 2819 -91 2034 -91 
Q 1250 -91 836 529 
Q 422 1150 422 2328 
Q 422 3509 836 4129 
Q 1250 4750 2034 4750 
z
" transform="scale(0.015625)"/>
        <path id="DejaVuSans-2e" d="M 684 794 
L 1344 794 
L 1344 0 
L 684 0 
L 684 794 
z
" transform="scale(0.015625)"/>
        <path id="DejaVuSans-34" d="M 2419 4116 
L 825 1625 
L 2419 1625 
L 2419 4116 
z
M 2253 4666 
L 3047 4666 
L 3047 1625 
L 3713 1625 
L 3713 1100 
L 3047 1100 
L 3047 0 
L 2419 0 
L 2419 1100 
L 313 1100 
L 313 1709 
L 2253 4666 
z
" transform="scale(0.015625)"/>
       </defs>
       <use xlink:href="#DejaVuSans-30"/>
       <use xlink:href="#DejaVuSans-2e" x="63.623047"/>
       <use xlink:href="#DejaVuSans-34" x="95.410156"/>
      </g>
     </g>
    </g>
    <g id="xtick_2">
     <g id="line2d_3">
      <path d="M 183.535 528.28 
L 183.535 31.2 
" clip-path="url(#p2184194587)" style="fill: none; stroke: #ffffff; stroke-width: 0.8; stroke-linecap: square"/>
     </g>
     <g id="line2d_4">
      <g>
       <use xlink:href="#mdefd34997f" x="183.535" y="528.28" style="fill: #555555; stroke: #555555; stroke-width: 0.8"/>
      </g>
     </g>
     <g id="text_2">
      <!-- 0.5 -->
      <g style="fill: #555555" transform="translate(173.993125 544.398125) scale(0.12 -0.12)">
       <defs>
        <path id="DejaVuSans-35" d="M 691 4666 
L 3169 4666 
L 3169 4134 
L 1269 4134 
L 1269 2991 
Q 1406 3038 1543 3061 
Q 1681 3084 1819 3084 
Q 2600 3084 3056 2656 
Q 3513 2228 3513 1497 
Q 3513 744 3044 326 
Q 2575 -91 1722 -91 
Q 1428 -91 1123 -41 
Q 819 9 494 109 
L 494 744 
Q 775 591 1075 516 
Q 1375 441 1709 441 
Q 2250 441 2565 725 
Q 2881 1009 2881 1497 
Q 2881 1984 2565 2268 
Q 2250 2553 1709 2553 
Q 1456 2553 1204 2497 
Q 953 2441 691 2322 
L 691 4666 
z
" transform="scale(0.015625)"/>
       </defs>
       <use xlink:href="#DejaVuSans-30"/>
       <use xlink:href="#DejaVuSans-2e" x="63.623047"/>
       <use xlink:href="#DejaVuSans-35" x="95.410156"/>
      </g>
     </g>
    </g>
    <g id="xtick_3">
     <g id="line2d_5">
      <path d="M 312.015 528.28 
L 312.015 31.2 
" clip-path="url(#p2184194587)" style="fill: none; stroke: #ffffff; stroke-width: 0.8; stroke-linecap: square"/>
     </g>
     <g id="line2d_6">
      <g>
       <use xlink:href="#mdefd34997f" x="312.015" y="528.28" style="fill: #555555; stroke: #555555; stroke-width: 0.8"/>
      </g>
     </g>
     <g id="text_3">
      <!-- 0.6 -->
      <g style="fill: #555555" transform="translate(302.473125 544.398125) scale(0.12 -0.12)">
       <defs>
        <path id="DejaVuSans-36" d="M 2113 2584 
Q 1688 2584 1439 2293 
Q 1191 2003 1191 1497 
Q 1191 994 1439 701 
Q 1688 409 2113 409 
Q 2538 409 2786 701 
Q 3034 994 3034 1497 
Q 3034 2003 2786 2293 
Q 2538 2584 2113 2584 
z
M 3366 4563 
L 3366 3988 
Q 3128 4100 2886 4159 
Q 2644 4219 2406 4219 
Q 1781 4219 1451 3797 
Q 1122 3375 1075 2522 
Q 1259 2794 1537 2939 
Q 1816 3084 2150 3084 
Q 2853 3084 3261 2657 
Q 3669 2231 3669 1497 
Q 3669 778 3244 343 
Q 2819 -91 2113 -91 
Q 1303 -91 875 529 
Q 447 1150 447 2328 
Q 447 3434 972 4092 
Q 1497 4750 2381 4750 
Q 2619 4750 2861 4703 
Q 3103 4656 3366 4563 
z
" transform="scale(0.015625)"/>
       </defs>
       <use xlink:href="#DejaVuSans-30"/>
       <use xlink:href="#DejaVuSans-2e" x="63.623047"/>
       <use xlink:href="#DejaVuSans-36" x="95.410156"/>
      </g>
     </g>
    </g>
    <g id="xtick_4">
     <g id="line2d_7">
      <path d="M 440.495 528.28 
L 440.495 31.2 
" clip-path="url(#p2184194587)" style="fill: none; stroke: #ffffff; stroke-width: 0.8; stroke-linecap: square"/>
     </g>
     <g id="line2d_8">
      <g>
       <use xlink:href="#mdefd34997f" x="440.495" y="528.28" style="fill: #555555; stroke: #555555; stroke-width: 0.8"/>
      </g>
     </g>
     <g id="text_4">
      <!-- 0.7 -->
      <g style="fill: #555555" transform="translate(430.953125 544.398125) scale(0.12 -0.12)">
       <defs>
        <path id="DejaVuSans-37" d="M 525 4666 
L 3525 4666 
L 3525 4397 
L 1831 0 
L 1172 0 
L 2766 4134 
L 525 4134 
L 525 4666 
z
" transform="scale(0.015625)"/>
       </defs>
       <use xlink:href="#DejaVuSans-30"/>
       <use xlink:href="#DejaVuSans-2e" x="63.623047"/>
       <use xlink:href="#DejaVuSans-37" x="95.410156"/>
      </g>
     </g>
    </g>
    <g id="xtick_5">
     <g id="line2d_9">
      <path d="M 568.975 528.28 
L 568.975 31.2 
" clip-path="url(#p2184194587)" style="fill: none; stroke: #ffffff; stroke-width: 0.8; stroke-linecap: square"/>
     </g>
     <g id="line2d_10">
      <g>
       <use xlink:href="#mdefd34997f" x="568.975" y="528.28" style="fill: #555555; stroke: #555555; stroke-width: 0.8"/>
      </g>
     </g>
     <g id="text_5">
      <!-- 0.8 -->
      <g style="fill: #555555" transform="translate(559.433125 544.398125) scale(0.12 -0.12)">
       <defs>
        <path id="DejaVuSans-38" d="M 2034 2216 
Q 1584 2216 1326 1975 
Q 1069 1734 1069 1313 
Q 1069 891 1326 650 
Q 1584 409 2034 409 
Q 2484 409 2743 651 
Q 3003 894 3003 1313 
Q 3003 1734 2745 1975 
Q 2488 2216 2034 2216 
z
M 1403 2484 
Q 997 2584 770 2862 
Q 544 3141 544 3541 
Q 544 4100 942 4425 
Q 1341 4750 2034 4750 
Q 2731 4750 3128 4425 
Q 3525 4100 3525 3541 
Q 3525 3141 3298 2862 
Q 3072 2584 2669 2484 
Q 3125 2378 3379 2068 
Q 3634 1759 3634 1313 
Q 3634 634 3220 271 
Q 2806 -91 2034 -91 
Q 1263 -91 848 271 
Q 434 634 434 1313 
Q 434 1759 690 2068 
Q 947 2378 1403 2484 
z
M 1172 3481 
Q 1172 3119 1398 2916 
Q 1625 2713 2034 2713 
Q 2441 2713 2670 2916 
Q 2900 3119 2900 3481 
Q 2900 3844 2670 4047 
Q 2441 4250 2034 4250 
Q 1625 4250 1398 4047 
Q 1172 3844 1172 3481 
z
" transform="scale(0.015625)"/>
       </defs>
       <use xlink:href="#DejaVuSans-30"/>
       <use xlink:href="#DejaVuSans-2e" x="63.623047"/>
       <use xlink:href="#DejaVuSans-38" x="95.410156"/>
      </g>
     </g>
    </g>
    <g id="xtick_6">
     <g id="line2d_11">
      <path d="M 697.455 528.28 
L 697.455 31.2 
" clip-path="url(#p2184194587)" style="fill: none; stroke: #ffffff; stroke-width: 0.8; stroke-linecap: square"/>
     </g>
     <g id="line2d_12">
      <g>
       <use xlink:href="#mdefd34997f" x="697.455" y="528.28" style="fill: #555555; stroke: #555555; stroke-width: 0.8"/>
      </g>
     </g>
     <g id="text_6">
      <!-- 0.9 -->
      <g style="fill: #555555" transform="translate(687.913125 544.398125) scale(0.12 -0.12)">
       <defs>
        <path id="DejaVuSans-39" d="M 703 97 
L 703 672 
Q 941 559 1184 500 
Q 1428 441 1663 441 
Q 2288 441 2617 861 
Q 2947 1281 2994 2138 
Q 2813 1869 2534 1725 
Q 2256 1581 1919 1581 
Q 1219 1581 811 2004 
Q 403 2428 403 3163 
Q 403 3881 828 4315 
Q 1253 4750 1959 4750 
Q 2769 4750 3195 4129 
Q 3622 3509 3622 2328 
Q 3622 1225 3098 567 
Q 2575 -91 1691 -91 
Q 1453 -91 1209 -44 
Q 966 3 703 97 
z
M 1959 2075 
Q 2384 2075 2632 2365 
Q 2881 2656 2881 3163 
Q 2881 3666 2632 3958 
Q 2384 4250 1959 4250 
Q 1534 4250 1286 3958 
Q 1038 3666 1038 3163 
Q 1038 2656 1286 2365 
Q 1534 2075 1959 2075 
z
" transform="scale(0.015625)"/>
       </defs>
       <use xlink:href="#DejaVuSans-30"/>
       <use xlink:href="#DejaVuSans-2e" x="63.623047"/>
       <use xlink:href="#DejaVuSans-39" x="95.410156"/>
      </g>
     </g>
    </g>
    <g id="text_7">
     <!-- GPQA Score (Benchmark Performance) -->
     <g style="fill: #555555" transform="translate(259.762187 560.011875) scale(0.12 -0.12)">
      <defs>
       <path id="DejaVuSans-47" d="M 3809 666 
L 3809 1919 
L 2778 1919 
L 2778 2438 
L 4434 2438 
L 4434 434 
Q 4069 175 3628 42 
Q 3188 -91 2688 -91 
Q 1594 -91 976 548 
Q 359 1188 359 2328 
Q 359 3472 976 4111 
Q 1594 4750 2688 4750 
Q 3144 4750 3555 4637 
Q 3966 4525 4313 4306 
L 4313 3634 
Q 3963 3931 3569 4081 
Q 3175 4231 2741 4231 
Q 1884 4231 1454 3753 
Q 1025 3275 1025 2328 
Q 1025 1384 1454 906 
Q 1884 428 2741 428 
Q 3075 428 3337 486 
Q 3600 544 3809 666 
z
" transform="scale(0.015625)"/>
       <path id="DejaVuSans-50" d="M 1259 4147 
L 1259 2394 
L 2053 2394 
Q 2494 2394 2734 2622 
Q 2975 2850 2975 3272 
Q 2975 3691 2734 3919 
Q 2494 4147 2053 4147 
L 1259 4147 
z
M 628 4666 
L 2053 4666 
Q 2838 4666 3239 4311 
Q 3641 3956 3641 3272 
Q 3641 2581 3239 2228 
Q 2838 1875 2053 1875 
L 1259 1875 
L 1259 0 
L 628 0 
L 628 4666 
z
" transform="scale(0.015625)"/>
       <path id="DejaVuSans-51" d="M 2522 4238 
Q 1834 4238 1429 3725 
Q 1025 3213 1025 2328 
Q 1025 1447 1429 934 
Q 1834 422 2522 422 
Q 3209 422 3611 934 
Q 4013 1447 4013 2328 
Q 4013 3213 3611 3725 
Q 3209 4238 2522 4238 
z
M 3406 84 
L 4238 -825 
L 3475 -825 
L 2784 -78 
Q 2681 -84 2626 -87 
Q 2572 -91 2522 -91 
Q 1538 -91 948 567 
Q 359 1225 359 2328 
Q 359 3434 948 4092 
Q 1538 4750 2522 4750 
Q 3503 4750 4090 4092 
Q 4678 3434 4678 2328 
Q 4678 1516 4351 937 
Q 4025 359 3406 84 
z
" transform="scale(0.015625)"/>
       <path id="DejaVuSans-41" d="M 2188 4044 
L 1331 1722 
L 3047 1722 
L 2188 4044 
z
M 1831 4666 
L 2547 4666 
L 4325 0 
L 3669 0 
L 3244 1197 
L 1141 1197 
L 716 0 
L 50 0 
L 1831 4666 
z
" transform="scale(0.015625)"/>
       <path id="DejaVuSans-20" transform="scale(0.015625)"/>
       <path id="DejaVuSans-53" d="M 3425 4513 
L 3425 3897 
Q 3066 4069 2747 4153 
Q 2428 4238 2131 4238 
Q 1616 4238 1336 4038 
Q 1056 3838 1056 3469 
Q 1056 3159 1242 3001 
Q 1428 2844 1947 2747 
L 2328 2669 
Q 3034 2534 3370 2195 
Q 3706 1856 3706 1288 
Q 3706 609 3251 259 
Q 2797 -91 1919 -91 
Q 1588 -91 1214 -16 
Q 841 59 441 206 
L 441 856 
Q 825 641 1194 531 
Q 1563 422 1919 422 
Q 2459 422 2753 634 
Q 3047 847 3047 1241 
Q 3047 1584 2836 1778 
Q 2625 1972 2144 2069 
L 1759 2144 
Q 1053 2284 737 2584 
Q 422 2884 422 3419 
Q 422 4038 858 4394 
Q 1294 4750 2059 4750 
Q 2388 4750 2728 4690 
Q 3069 4631 3425 4513 
z
" transform="scale(0.015625)"/>
       <path id="DejaVuSans-63" d="M 3122 3366 
L 3122 2828 
Q 2878 2963 2633 3030 
Q 2388 3097 2138 3097 
Q 1578 3097 1268 2742 
Q 959 2388 959 1747 
Q 959 1106 1268 751 
Q 1578 397 2138 397 
Q 2388 397 2633 464 
Q 2878 531 3122 666 
L 3122 134 
Q 2881 22 2623 -34 
Q 2366 -91 2075 -91 
Q 1284 -91 818 406 
Q 353 903 353 1747 
Q 353 2603 823 3093 
Q 1294 3584 2113 3584 
Q 2378 3584 2631 3529 
Q 2884 3475 3122 3366 
z
" transform="scale(0.015625)"/>
       <path id="DejaVuSans-6f" d="M 1959 3097 
Q 1497 3097 1228 2736 
Q 959 2375 959 1747 
Q 959 1119 1226 758 
Q 1494 397 1959 397 
Q 2419 397 2687 759 
Q 2956 1122 2956 1747 
Q 2956 2369 2687 2733 
Q 2419 3097 1959 3097 
z
M 1959 3584 
Q 2709 3584 3137 3096 
Q 3566 2609 3566 1747 
Q 3566 888 3137 398 
Q 2709 -91 1959 -91 
Q 1206 -91 779 398 
Q 353 888 353 1747 
Q 353 2609 779 3096 
Q 1206 3584 1959 3584 
z
" transform="scale(0.015625)"/>
       <path id="DejaVuSans-72" d="M 2631 2963 
Q 2534 3019 2420 3045 
Q 2306 3072 2169 3072 
Q 1681 3072 1420 2755 
Q 1159 2438 1159 1844 
L 1159 0 
L 581 0 
L 581 3500 
L 1159 3500 
L 1159 2956 
Q 1341 3275 1631 3429 
Q 1922 3584 2338 3584 
Q 2397 3584 2469 3576 
Q 2541 3569 2628 3553 
L 2631 2963 
z
" transform="scale(0.015625)"/>
       <path id="DejaVuSans-65" d="M 3597 1894 
L 3597 1613 
L 953 1613 
Q 991 1019 1311 708 
Q 1631 397 2203 397 
Q 2534 397 2845 478 
Q 3156 559 3463 722 
L 3463 178 
Q 3153 47 2828 -22 
Q 2503 -91 2169 -91 
Q 1331 -91 842 396 
Q 353 884 353 1716 
Q 353 2575 817 3079 
Q 1281 3584 2069 3584 
Q 2775 3584 3186 3129 
Q 3597 2675 3597 1894 
z
M 3022 2063 
Q 3016 2534 2758 2815 
Q 2500 3097 2075 3097 
Q 1594 3097 1305 2825 
Q 1016 2553 972 2059 
L 3022 2063 
z
" transform="scale(0.015625)"/>
       <path id="DejaVuSans-28" d="M 1984 4856 
Q 1566 4138 1362 3434 
Q 1159 2731 1159 2009 
Q 1159 1288 1364 580 
Q 1569 -128 1984 -844 
L 1484 -844 
Q 1016 -109 783 600 
Q 550 1309 550 2009 
Q 550 2706 781 3412 
Q 1013 4119 1484 4856 
L 1984 4856 
z
" transform="scale(0.015625)"/>
       <path id="DejaVuSans-42" d="M 1259 2228 
L 1259 519 
L 2272 519 
Q 2781 519 3026 730 
Q 3272 941 3272 1375 
Q 3272 1813 3026 2020 
Q 2781 2228 2272 2228 
L 1259 2228 
z
M 1259 4147 
L 1259 2741 
L 2194 2741 
Q 2656 2741 2882 2914 
Q 3109 3088 3109 3444 
Q 3109 3797 2882 3972 
Q 2656 4147 2194 4147 
L 1259 4147 
z
M 628 4666 
L 2241 4666 
Q 2963 4666 3353 4366 
Q 3744 4066 3744 3513 
Q 3744 3084 3544 2831 
Q 3344 2578 2956 2516 
Q 3422 2416 3680 2098 
Q 3938 1781 3938 1306 
Q 3938 681 3513 340 
Q 3088 0 2303 0 
L 628 0 
L 628 4666 
z
" transform="scale(0.015625)"/>
       <path id="DejaVuSans-6e" d="M 3513 2113 
L 3513 0 
L 2938 0 
L 2938 2094 
Q 2938 2591 2744 2837 
Q 2550 3084 2163 3084 
Q 1697 3084 1428 2787 
Q 1159 2491 1159 1978 
L 1159 0 
L 581 0 
L 581 3500 
L 1159 3500 
L 1159 2956 
Q 1366 3272 1645 3428 
Q 1925 3584 2291 3584 
Q 2894 3584 3203 3211 
Q 3513 2838 3513 2113 
z
" transform="scale(0.015625)"/>
       <path id="DejaVuSans-68" d="M 3513 2113 
L 3513 0 
L 2938 0 
L 2938 2094 
Q 2938 2591 2744 2837 
Q 2550 3084 2163 3084 
Q 1697 3084 1428 2787 
Q 1159 2491 1159 1978 
L 1159 0 
L 581 0 
L 581 4863 
L 1159 4863 
L 1159 2956 
Q 1366 3272 1645 3428 
Q 1925 3584 2291 3584 
Q 2894 3584 3203 3211 
Q 3513 2838 3513 2113 
z
" transform="scale(0.015625)"/>
       <path id="DejaVuSans-6d" d="M 3328 2828 
Q 3544 3216 3844 3400 
Q 4144 3584 4550 3584 
Q 5097 3584 5394 3201 
Q 5691 2819 5691 2113 
L 5691 0 
L 5113 0 
L 5113 2094 
Q 5113 2597 4934 2840 
Q 4756 3084 4391 3084 
Q 3944 3084 3684 2787 
Q 3425 2491 3425 1978 
L 3425 0 
L 2847 0 
L 2847 2094 
Q 2847 2600 2669 2842 
Q 2491 3084 2119 3084 
Q 1678 3084 1418 2786 
Q 1159 2488 1159 1978 
L 1159 0 
L 581 0 
L 581 3500 
L 1159 3500 
L 1159 2956 
Q 1356 3278 1631 3431 
Q 1906 3584 2284 3584 
Q 2666 3584 2933 3390 
Q 3200 3197 3328 2828 
z
" transform="scale(0.015625)"/>
       <path id="DejaVuSans-61" d="M 2194 1759 
Q 1497 1759 1228 1600 
Q 959 1441 959 1056 
Q 959 750 1161 570 
Q 1363 391 1709 391 
Q 2188 391 2477 730 
Q 2766 1069 2766 1631 
L 2766 1759 
L 2194 1759 
z
M 3341 1997 
L 3341 0 
L 2766 0 
L 2766 531 
Q 2569 213 2275 61 
Q 1981 -91 1556 -91 
Q 1019 -91 701 211 
Q 384 513 384 1019 
Q 384 1609 779 1909 
Q 1175 2209 1959 2209 
L 2766 2209 
L 2766 2266 
Q 2766 2663 2505 2880 
Q 2244 3097 1772 3097 
Q 1472 3097 1187 3025 
Q 903 2953 641 2809 
L 641 3341 
Q 956 3463 1253 3523 
Q 1550 3584 1831 3584 
Q 2591 3584 2966 3190 
Q 3341 2797 3341 1997 
z
" transform="scale(0.015625)"/>
       <path id="DejaVuSans-6b" d="M 581 4863 
L 1159 4863 
L 1159 1991 
L 2875 3500 
L 3609 3500 
L 1753 1863 
L 3688 0 
L 2938 0 
L 1159 1709 
L 1159 0 
L 581 0 
L 581 4863 
z
" transform="scale(0.015625)"/>
       <path id="DejaVuSans-66" d="M 2375 4863 
L 2375 4384 
L 1825 4384 
Q 1516 4384 1395 4259 
Q 1275 4134 1275 3809 
L 1275 3500 
L 2222 3500 
L 2222 3053 
L 1275 3053 
L 1275 0 
L 697 0 
L 697 3053 
L 147 3053 
L 147 3500 
L 697 3500 
L 697 3744 
Q 697 4328 969 4595 
Q 1241 4863 1831 4863 
L 2375 4863 
z
" transform="scale(0.015625)"/>
       <path id="DejaVuSans-29" d="M 513 4856 
L 1013 4856 
Q 1481 4119 1714 3412 
Q 1947 2706 1947 2009 
Q 1947 1309 1714 600 
Q 1481 -109 1013 -844 
L 513 -844 
Q 928 -128 1133 580 
Q 1338 1288 1338 2009 
Q 1338 2731 1133 3434 
Q 928 4138 513 4856 
z
" transform="scale(0.015625)"/>
      </defs>
      <use xlink:href="#DejaVuSans-47"/>
      <use xlink:href="#DejaVuSans-50" x="77.490234"/>
      <use xlink:href="#DejaVuSans-51" x="137.792969"/>
      <use xlink:href="#DejaVuSans-41" x="216.503906"/>
      <use xlink:href="#DejaVuSans-20" x="284.912109"/>
      <use xlink:href="#DejaVuSans-53" x="316.699219"/>
      <use xlink:href="#DejaVuSans-63" x="380.175781"/>
      <use xlink:href="#DejaVuSans-6f" x="435.15625"/>
      <use xlink:href="#DejaVuSans-72" x="496.337891"/>
      <use xlink:href="#DejaVuSans-65" x="535.201172"/>
      <use xlink:href="#DejaVuSans-20" x="596.724609"/>
      <use xlink:href="#DejaVuSans-28" x="628.511719"/>
      <use xlink:href="#DejaVuSans-42" x="667.525391"/>
      <use xlink:href="#DejaVuSans-65" x="736.128906"/>
      <use xlink:href="#DejaVuSans-6e" x="797.652344"/>
      <use xlink:href="#DejaVuSans-63" x="861.03125"/>
      <use xlink:href="#DejaVuSans-68" x="916.011719"/>
      <use xlink:href="#DejaVuSans-6d" x="979.390625"/>
      <use xlink:href="#DejaVuSans-61" x="1076.802734"/>
      <use xlink:href="#DejaVuSans-72" x="1138.082031"/>
      <use xlink:href="#DejaVuSans-6b" x="1179.195312"/>
      <use xlink:href="#DejaVuSans-20" x="1237.105469"/>
      <use xlink:href="#DejaVuSans-50" x="1268.892578"/>
      <use xlink:href="#DejaVuSans-65" x="1325.570312"/>
      <use xlink:href="#DejaVuSans-72" x="1387.09375"/>
      <use xlink:href="#DejaVuSans-66" x="1428.207031"/>
      <use xlink:href="#DejaVuSans-6f" x="1463.412109"/>
      <use xlink:href="#DejaVuSans-72" x="1524.59375"/>
      <use xlink:href="#DejaVuSans-6d" x="1563.957031"/>
      <use xlink:href="#DejaVuSans-61" x="1661.369141"/>
      <use xlink:href="#DejaVuSans-6e" x="1722.648438"/>
      <use xlink:href="#DejaVuSans-63" x="1786.027344"/>
      <use xlink:href="#DejaVuSans-65" x="1841.007812"/>
      <use xlink:href="#DejaVuSans-29" x="1902.53125"/>
     </g>
    </g>
   </g>
   <g id="matplotlib.axis_2">
    <g id="ytick_1">
     <g id="line2d_13">
      <path d="M 55.055 528.28 
L 697.455 528.28 
" clip-path="url(#p2184194587)" style="fill: none; stroke: #ffffff; stroke-width: 0.8; stroke-linecap: square"/>
     </g>
     <g id="line2d_14">
      <defs>
       <path id="m8e23816294" d="M 0 0 
L -3.5 0 
" style="stroke: #555555; stroke-width: 0.8"/>
      </defs>
      <g>
       <use xlink:href="#m8e23816294" x="55.055" y="528.28" style="fill: #555555; stroke: #555555; stroke-width: 0.8"/>
      </g>
     </g>
     <g id="text_8">
      <!-- 0.0 -->
      <g style="fill: #555555" transform="translate(28.97125 532.839063) scale(0.12 -0.12)">
       <use xlink:href="#DejaVuSans-30"/>
       <use xlink:href="#DejaVuSans-2e" x="63.623047"/>
       <use xlink:href="#DejaVuSans-30" x="95.410156"/>
      </g>
     </g>
    </g>
    <g id="ytick_2">
     <g id="line2d_15">
      <path d="M 55.055 428.864 
L 697.455 428.864 
" clip-path="url(#p2184194587)" style="fill: none; stroke: #ffffff; stroke-width: 0.8; stroke-linecap: square"/>
     </g>
     <g id="line2d_16">
      <g>
       <use xlink:href="#m8e23816294" x="55.055" y="428.864" style="fill: #555555; stroke: #555555; stroke-width: 0.8"/>
      </g>
     </g>
     <g id="text_9">
      <!-- 0.2 -->
      <g style="fill: #555555" transform="translate(28.97125 433.423063) scale(0.12 -0.12)">
       <defs>
        <path id="DejaVuSans-32" d="M 1228 531 
L 3431 531 
L 3431 0 
L 469 0 
L 469 531 
Q 828 903 1448 1529 
Q 2069 2156 2228 2338 
Q 2531 2678 2651 2914 
Q 2772 3150 2772 3378 
Q 2772 3750 2511 3984 
Q 2250 4219 1831 4219 
Q 1534 4219 1204 4116 
Q 875 4013 500 3803 
L 500 4441 
Q 881 4594 1212 4672 
Q 1544 4750 1819 4750 
Q 2544 4750 2975 4387 
Q 3406 4025 3406 3419 
Q 3406 3131 3298 2873 
Q 3191 2616 2906 2266 
Q 2828 2175 2409 1742 
Q 1991 1309 1228 531 
z
" transform="scale(0.015625)"/>
       </defs>
       <use xlink:href="#DejaVuSans-30"/>
       <use xlink:href="#DejaVuSans-2e" x="63.623047"/>
       <use xlink:href="#DejaVuSans-32" x="95.410156"/>
      </g>
     </g>
    </g>
    <g id="ytick_3">
     <g id="line2d_17">
      <path d="M 55.055 329.448 
L 697.455 329.448 
" clip-path="url(#p2184194587)" style="fill: none; stroke: #ffffff; stroke-width: 0.8; stroke-linecap: square"/>
     </g>
     <g id="line2d_18">
      <g>
       <use xlink:href="#m8e23816294" x="55.055" y="329.448" style="fill: #555555; stroke: #555555; stroke-width: 0.8"/>
      </g>
     </g>
     <g id="text_10">
      <!-- 0.4 -->
      <g style="fill: #555555" transform="translate(28.97125 334.007062) scale(0.12 -0.12)">
       <use xlink:href="#DejaVuSans-30"/>
       <use xlink:href="#DejaVuSans-2e" x="63.623047"/>
       <use xlink:href="#DejaVuSans-34" x="95.410156"/>
      </g>
     </g>
    </g>
    <g id="ytick_4">
     <g id="line2d_19">
      <path d="M 55.055 230.032 
L 697.455 230.032 
" clip-path="url(#p2184194587)" style="fill: none; stroke: #ffffff; stroke-width: 0.8; stroke-linecap: square"/>
     </g>
     <g id="line2d_20">
      <g>
       <use xlink:href="#m8e23816294" x="55.055" y="230.032" style="fill: #555555; stroke: #555555; stroke-width: 0.8"/>
      </g>
     </g>
     <g id="text_11">
      <!-- 0.6 -->
      <g style="fill: #555555" transform="translate(28.97125 234.591062) scale(0.12 -0.12)">
       <use xlink:href="#DejaVuSans-30"/>
       <use xlink:href="#DejaVuSans-2e" x="63.623047"/>
       <use xlink:href="#DejaVuSans-36" x="95.410156"/>
      </g>
     </g>
    </g>
    <g id="ytick_5">
     <g id="line2d_21">
      <path d="M 55.055 130.616 
L 697.455 130.616 
" clip-path="url(#p2184194587)" style="fill: none; stroke: #ffffff; stroke-width: 0.8; stroke-linecap: square"/>
     </g>
     <g id="line2d_22">
      <g>
       <use xlink:href="#m8e23816294" x="55.055" y="130.616" style="fill: #555555; stroke: #555555; stroke-width: 0.8"/>
      </g>
     </g>
     <g id="text_12">
      <!-- 0.8 -->
      <g style="fill: #555555" transform="translate(28.97125 135.175062) scale(0.12 -0.12)">
       <use xlink:href="#DejaVuSans-30"/>
       <use xlink:href="#DejaVuSans-2e" x="63.623047"/>
       <use xlink:href="#DejaVuSans-38" x="95.410156"/>
      </g>
     </g>
    </g>
    <g id="ytick_6">
     <g id="line2d_23">
      <path d="M 55.055 31.2 
L 697.455 31.2 
" clip-path="url(#p2184194587)" style="fill: none; stroke: #ffffff; stroke-width: 0.8; stroke-linecap: square"/>
     </g>
     <g id="line2d_24">
      <g>
       <use xlink:href="#m8e23816294" x="55.055" y="31.2" style="fill: #555555; stroke: #555555; stroke-width: 0.8"/>
      </g>
     </g>
     <g id="text_13">
      <!-- 1.0 -->
      <g style="fill: #555555" transform="translate(28.97125 35.759062) scale(0.12 -0.12)">
       <defs>
        <path id="DejaVuSans-31" d="M 794 531 
L 1825 531 
L 1825 4091 
L 703 3866 
L 703 4441 
L 1819 4666 
L 2450 4666 
L 2450 531 
L 3481 531 
L 3481 0 
L 794 0 
L 794 531 
z
" transform="scale(0.015625)"/>
       </defs>
       <use xlink:href="#DejaVuSans-31"/>
       <use xlink:href="#DejaVuSans-2e" x="63.623047"/>
       <use xlink:href="#DejaVuSans-30" x="95.410156"/>
      </g>
     </g>
    </g>
    <g id="text_14">
     <!-- Causal Extraction Performance (Human Evaluation) -->
     <g style="fill: #555555" transform="translate(22.475625 434.133125) rotate(-90) scale(0.12 -0.12)">
      <defs>
       <path id="DejaVuSans-43" d="M 4122 4306 
L 4122 3641 
Q 3803 3938 3442 4084 
Q 3081 4231 2675 4231 
Q 1875 4231 1450 3742 
Q 1025 3253 1025 2328 
Q 1025 1406 1450 917 
Q 1875 428 2675 428 
Q 3081 428 3442 575 
Q 3803 722 4122 1019 
L 4122 359 
Q 3791 134 3420 21 
Q 3050 -91 2638 -91 
Q 1578 -91 968 557 
Q 359 1206 359 2328 
Q 359 3453 968 4101 
Q 1578 4750 2638 4750 
Q 3056 4750 3426 4639 
Q 3797 4528 4122 4306 
z
" transform="scale(0.015625)"/>
       <path id="DejaVuSans-75" d="M 544 1381 
L 544 3500 
L 1119 3500 
L 1119 1403 
Q 1119 906 1312 657 
Q 1506 409 1894 409 
Q 2359 409 2629 706 
Q 2900 1003 2900 1516 
L 2900 3500 
L 3475 3500 
L 3475 0 
L 2900 0 
L 2900 538 
Q 2691 219 2414 64 
Q 2138 -91 1772 -91 
Q 1169 -91 856 284 
Q 544 659 544 1381 
z
M 1991 3584 
L 1991 3584 
z
" transform="scale(0.015625)"/>
       <path id="DejaVuSans-73" d="M 2834 3397 
L 2834 2853 
Q 2591 2978 2328 3040 
Q 2066 3103 1784 3103 
Q 1356 3103 1142 2972 
Q 928 2841 928 2578 
Q 928 2378 1081 2264 
Q 1234 2150 1697 2047 
L 1894 2003 
Q 2506 1872 2764 1633 
Q 3022 1394 3022 966 
Q 3022 478 2636 193 
Q 2250 -91 1575 -91 
Q 1294 -91 989 -36 
Q 684 19 347 128 
L 347 722 
Q 666 556 975 473 
Q 1284 391 1588 391 
Q 1994 391 2212 530 
Q 2431 669 2431 922 
Q 2431 1156 2273 1281 
Q 2116 1406 1581 1522 
L 1381 1569 
Q 847 1681 609 1914 
Q 372 2147 372 2553 
Q 372 3047 722 3315 
Q 1072 3584 1716 3584 
Q 2034 3584 2315 3537 
Q 2597 3491 2834 3397 
z
" transform="scale(0.015625)"/>
       <path id="DejaVuSans-6c" d="M 603 4863 
L 1178 4863 
L 1178 0 
L 603 0 
L 603 4863 
z
" transform="scale(0.015625)"/>
       <path id="DejaVuSans-45" d="M 628 4666 
L 3578 4666 
L 3578 4134 
L 1259 4134 
L 1259 2753 
L 3481 2753 
L 3481 2222 
L 1259 2222 
L 1259 531 
L 3634 531 
L 3634 0 
L 628 0 
L 628 4666 
z
" transform="scale(0.015625)"/>
       <path id="DejaVuSans-78" d="M 3513 3500 
L 2247 1797 
L 3578 0 
L 2900 0 
L 1881 1375 
L 863 0 
L 184 0 
L 1544 1831 
L 300 3500 
L 978 3500 
L 1906 2253 
L 2834 3500 
L 3513 3500 
z
" transform="scale(0.015625)"/>
       <path id="DejaVuSans-74" d="M 1172 4494 
L 1172 3500 
L 2356 3500 
L 2356 3053 
L 1172 3053 
L 1172 1153 
Q 1172 725 1289 603 
Q 1406 481 1766 481 
L 2356 481 
L 2356 0 
L 1766 0 
Q 1100 0 847 248 
Q 594 497 594 1153 
L 594 3053 
L 172 3053 
L 172 3500 
L 594 3500 
L 594 4494 
L 1172 4494 
z
" transform="scale(0.015625)"/>
       <path id="DejaVuSans-69" d="M 603 3500 
L 1178 3500 
L 1178 0 
L 603 0 
L 603 3500 
z
M 603 4863 
L 1178 4863 
L 1178 4134 
L 603 4134 
L 603 4863 
z
" transform="scale(0.015625)"/>
       <path id="DejaVuSans-48" d="M 628 4666 
L 1259 4666 
L 1259 2753 
L 3553 2753 
L 3553 4666 
L 4184 4666 
L 4184 0 
L 3553 0 
L 3553 2222 
L 1259 2222 
L 1259 0 
L 628 0 
L 628 4666 
z
" transform="scale(0.015625)"/>
       <path id="DejaVuSans-76" d="M 191 3500 
L 800 3500 
L 1894 563 
L 2988 3500 
L 3597 3500 
L 2284 0 
L 1503 0 
L 191 3500 
z
" transform="scale(0.015625)"/>
      </defs>
      <use xlink:href="#DejaVuSans-43"/>
      <use xlink:href="#DejaVuSans-61" x="69.824219"/>
      <use xlink:href="#DejaVuSans-75" x="131.103516"/>
      <use xlink:href="#DejaVuSans-73" x="194.482422"/>
      <use xlink:href="#DejaVuSans-61" x="246.582031"/>
      <use xlink:href="#DejaVuSans-6c" x="307.861328"/>
      <use xlink:href="#DejaVuSans-20" x="335.644531"/>
      <use xlink:href="#DejaVuSans-45" x="367.431641"/>
      <use xlink:href="#DejaVuSans-78" x="430.615234"/>
      <use xlink:href="#DejaVuSans-74" x="489.794922"/>
      <use xlink:href="#DejaVuSans-72" x="529.003906"/>
      <use xlink:href="#DejaVuSans-61" x="570.117188"/>
      <use xlink:href="#DejaVuSans-63" x="631.396484"/>
      <use xlink:href="#DejaVuSans-74" x="686.376953"/>
      <use xlink:href="#DejaVuSans-69" x="725.585938"/>
      <use xlink:href="#DejaVuSans-6f" x="753.369141"/>
      <use xlink:href="#DejaVuSans-6e" x="814.550781"/>
      <use xlink:href="#DejaVuSans-20" x="877.929688"/>
      <use xlink:href="#DejaVuSans-50" x="909.716797"/>
      <use xlink:href="#DejaVuSans-65" x="966.394531"/>
      <use xlink:href="#DejaVuSans-72" x="1027.917969"/>
      <use xlink:href="#DejaVuSans-66" x="1069.03125"/>
      <use xlink:href="#DejaVuSans-6f" x="1104.236328"/>
      <use xlink:href="#DejaVuSans-72" x="1165.417969"/>
      <use xlink:href="#DejaVuSans-6d" x="1204.78125"/>
      <use xlink:href="#DejaVuSans-61" x="1302.193359"/>
      <use xlink:href="#DejaVuSans-6e" x="1363.472656"/>
      <use xlink:href="#DejaVuSans-63" x="1426.851562"/>
      <use xlink:href="#DejaVuSans-65" x="1481.832031"/>
      <use xlink:href="#DejaVuSans-20" x="1543.355469"/>
      <use xlink:href="#DejaVuSans-28" x="1575.142578"/>
      <use xlink:href="#DejaVuSans-48" x="1614.15625"/>
      <use xlink:href="#DejaVuSans-75" x="1689.351562"/>
      <use xlink:href="#DejaVuSans-6d" x="1752.730469"/>
      <use xlink:href="#DejaVuSans-61" x="1850.142578"/>
      <use xlink:href="#DejaVuSans-6e" x="1911.421875"/>
      <use xlink:href="#DejaVuSans-20" x="1974.800781"/>
      <use xlink:href="#DejaVuSans-45" x="2006.587891"/>
      <use xlink:href="#DejaVuSans-76" x="2069.771484"/>
      <use xlink:href="#DejaVuSans-61" x="2128.951172"/>
      <use xlink:href="#DejaVuSans-6c" x="2190.230469"/>
      <use xlink:href="#DejaVuSans-75" x="2218.013672"/>
      <use xlink:href="#DejaVuSans-61" x="2281.392578"/>
      <use xlink:href="#DejaVuSans-74" x="2342.671875"/>
      <use xlink:href="#DejaVuSans-69" x="2381.880859"/>
      <use xlink:href="#DejaVuSans-6f" x="2409.664062"/>
      <use xlink:href="#DejaVuSans-6e" x="2470.845703"/>
      <use xlink:href="#DejaVuSans-29" x="2534.224609"/>
     </g>
    </g>
   </g>
   <g id="PathCollection_1">
    <defs>
     <path id="mbbfd55cdc3" d="M 0 5 
C 1.326016 5 2.597899 4.473168 3.535534 3.535534 
C 4.473168 2.597899 5 1.326016 5 0 
C 5 -1.326016 4.473168 -2.597899 3.535534 -3.535534 
C 2.597899 -4.473168 1.326016 -5 0 -5 
C -1.326016 -5 -2.597899 -4.473168 -3.535534 -3.535534 
C -4.473168 -2.597899 -5 -1.326016 -5 0 
C -5 1.326016 -4.473168 2.597899 -3.535534 3.535534 
C -2.597899 4.473168 -1.326016 5 0 5 
z
" style="stroke: #0000ff; stroke-width: 0.5"/>
    </defs>
    <g clip-path="url(#p2184194587)">
     <use xlink:href="#mbbfd55cdc3" x="611.3734" y="114.21236" style="fill: #0000ff; stroke: #0000ff; stroke-width: 0.5"/>
     <use xlink:href="#mbbfd55cdc3" x="628.0758" y="130.616" style="fill: #0000ff; stroke: #0000ff; stroke-width: 0.5"/>
     <use xlink:href="#mbbfd55cdc3" x="630.6454" y="132.10724" style="fill: #0000ff; stroke: #0000ff; stroke-width: 0.5"/>
     <use xlink:href="#mbbfd55cdc3" x="459.767" y="153.97876" style="fill: #0000ff; stroke: #0000ff; stroke-width: 0.5"/>
     <use xlink:href="#mbbfd55cdc3" x="620.367" y="156.96124" style="fill: #0000ff; stroke: #0000ff; stroke-width: 0.5"/>
     <use xlink:href="#mbbfd55cdc3" x="123.1494" y="158.94956" style="fill: #0000ff; stroke: #0000ff; stroke-width: 0.5"/>
     <use xlink:href="#mbbfd55cdc3" x="386.5334" y="163.92036" style="fill: #0000ff; stroke: #0000ff; stroke-width: 0.5"/>
     <use xlink:href="#mbbfd55cdc3" x="437.9254" y="201.69844" style="fill: #0000ff; stroke: #0000ff; stroke-width: 0.5"/>
    </g>
   </g>
   <g id="PolyCollection_1">
    <path d="M 123.1494 159.571278 
L 123.1494 290.558957 
L 128.275622 288.896594 
L 133.401844 287.234231 
L 138.528067 285.571869 
L 143.654289 283.909506 
L 148.780511 282.247143 
L 153.906733 280.58478 
L 159.032956 278.922417 
L 164.159178 277.260055 
L 169.2854 275.597692 
L 174.411622 273.935329 
L 179.537844 272.270638 
L 184.664067 270.605502 
L 189.790289 268.940365 
L 194.916511 267.275229 
L 200.042733 265.610092 
L 205.168956 263.944956 
L 210.295178 262.27982 
L 215.4214 260.614683 
L 220.547622 258.949547 
L 225.673844 257.28441 
L 230.800067 255.619274 
L 235.926289 253.954137 
L 241.052511 252.289001 
L 246.178733 250.623864 
L 251.304956 248.958728 
L 256.431178 247.293592 
L 261.5574 245.628455 
L 266.683622 243.963319 
L 271.809844 242.298182 
L 276.936067 240.633046 
L 282.062289 238.967909 
L 287.188511 237.302773 
L 292.314733 235.737618 
L 297.440956 234.207139 
L 302.567178 232.490971 
L 307.6934 230.719439 
L 312.819622 229.08781 
L 317.945844 227.456182 
L 323.072067 225.824553 
L 328.198289 224.192925 
L 333.324511 222.561296 
L 338.450733 220.929668 
L 343.576956 219.298039 
L 348.703178 217.666411 
L 353.8294 216.034782 
L 358.955622 214.397862 
L 364.081844 212.759934 
L 369.208067 211.122005 
L 374.334289 209.483511 
L 379.460511 208.267411 
L 384.586733 206.751099 
L 389.712956 205.214742 
L 394.839178 203.856981 
L 399.9654 202.49922 
L 405.091622 201.141459 
L 410.217844 199.783697 
L 415.344067 198.425936 
L 420.470289 197.068175 
L 425.596511 195.710413 
L 430.722733 194.352652 
L 435.848956 192.994891 
L 440.975178 191.604421 
L 446.1014 190.087107 
L 451.227622 188.569792 
L 456.353844 187.563846 
L 461.480067 186.206085 
L 466.606289 184.848323 
L 471.732511 183.214871 
L 476.858733 181.710896 
L 481.984956 180.233595 
L 487.111178 179.164656 
L 492.2374 177.282277 
L 497.363622 175.558598 
L 502.489844 175.343995 
L 507.616067 173.858652 
L 512.742289 172.157067 
L 517.868511 171.27781 
L 522.994733 169.911421 
L 528.120956 168.373274 
L 533.247178 167.209096 
L 538.3734 166.518595 
L 543.499622 166.27179 
L 548.625844 165.913384 
L 553.752067 165.555319 
L 558.878289 165.388037 
L 564.004511 165.176498 
L 569.130733 165.008338 
L 574.256956 165.030066 
L 579.383178 165.05984 
L 584.5094 165.089614 
L 589.635622 165.119388 
L 594.761844 165.116189 
L 599.888067 165.076609 
L 605.014289 165.030603 
L 610.140511 164.838525 
L 615.266733 164.733512 
L 620.392956 164.455452 
L 625.519178 164.261616 
L 630.6454 164.06778 
L 630.6454 121.832532 
L 630.6454 121.832532 
L 625.519178 123.087073 
L 620.392956 124.253852 
L 615.266733 125.037678 
L 610.140511 125.775356 
L 605.014289 126.640502 
L 599.888067 127.438172 
L 594.761844 127.976226 
L 589.635622 128.329233 
L 584.5094 129.441732 
L 579.383178 130.074115 
L 574.256956 130.602306 
L 569.130733 131.208899 
L 564.004511 131.852141 
L 558.878289 132.536434 
L 553.752067 133.061447 
L 548.625844 133.618874 
L 543.499622 134.211613 
L 538.3734 134.697724 
L 533.247178 135.213189 
L 528.120956 135.56268 
L 522.994733 136.106902 
L 517.868511 136.56259 
L 512.742289 136.980277 
L 507.616067 137.367947 
L 502.489844 137.730625 
L 497.363622 138.044814 
L 492.2374 138.359003 
L 487.111178 138.673192 
L 481.984956 138.987381 
L 476.858733 139.32075 
L 471.732511 139.677655 
L 466.606289 140.179409 
L 461.480067 140.681163 
L 456.353844 141.182918 
L 451.227622 141.586585 
L 446.1014 141.863549 
L 440.975178 142.189724 
L 435.848956 142.529333 
L 430.722733 142.826113 
L 425.596511 143.122893 
L 420.470289 143.42087 
L 415.344067 143.720913 
L 410.217844 144.019572 
L 405.091622 144.31701 
L 399.9654 144.614448 
L 394.839178 145.022577 
L 389.712956 145.304153 
L 384.586733 145.556179 
L 379.460511 145.871346 
L 374.334289 146.214914 
L 369.208067 146.559014 
L 364.081844 146.905889 
L 358.955622 147.270234 
L 353.8294 147.689588 
L 348.703178 147.941831 
L 343.576956 148.28416 
L 338.450733 148.626489 
L 333.324511 148.914987 
L 328.198289 149.191023 
L 323.072067 149.467059 
L 317.945844 149.743886 
L 312.819622 150.024756 
L 307.6934 150.313803 
L 302.567178 150.748004 
L 297.440956 151.11798 
L 292.314733 151.354681 
L 287.188511 151.59401 
L 282.062289 151.926562 
L 276.936067 152.156881 
L 271.809844 152.387201 
L 266.683622 152.617521 
L 261.5574 152.848802 
L 256.431178 153.080207 
L 251.304956 153.326747 
L 246.178733 153.549259 
L 241.052511 153.835019 
L 235.926289 154.134916 
L 230.800067 154.429895 
L 225.673844 154.727332 
L 220.547622 155.024442 
L 215.4214 155.321364 
L 210.295178 155.619106 
L 205.168956 155.916943 
L 200.042733 156.214472 
L 194.916511 156.511959 
L 189.790289 156.809397 
L 184.664067 157.103279 
L 179.537844 157.371989 
L 174.411622 157.614264 
L 169.2854 157.944537 
L 164.159178 158.126961 
L 159.032956 158.411463 
L 153.906733 158.61007 
L 148.780511 158.817733 
L 143.654289 159.086771 
L 138.528067 159.242668 
L 133.401844 159.372392 
L 128.275622 159.423248 
L 123.1494 159.571278 
z
" clip-path="url(#p2184194587)" style="fill: #ff0000; fill-opacity: 0.15"/>
   </g>
   <g id="line2d_25">
    <path d="M 123.1494 178.320449 
L 128.275622 177.943601 
L 133.401844 177.566752 
L 138.528067 177.189904 
L 143.654289 176.813055 
L 148.780511 176.436207 
L 153.906733 176.059358 
L 159.032956 175.682509 
L 164.159178 175.305661 
L 169.2854 174.928812 
L 174.411622 174.551964 
L 179.537844 174.175115 
L 184.664067 173.798266 
L 189.790289 173.421418 
L 194.916511 173.044569 
L 200.042733 172.667721 
L 205.168956 172.290872 
L 210.295178 171.914024 
L 215.4214 171.537175 
L 220.547622 171.160326 
L 225.673844 170.783478 
L 230.800067 170.406629 
L 235.926289 170.029781 
L 241.052511 169.652932 
L 246.178733 169.276084 
L 251.304956 168.899235 
L 256.431178 168.522386 
L 261.5574 168.145538 
L 266.683622 167.768689 
L 271.809844 167.391841 
L 276.936067 167.014992 
L 282.062289 166.638144 
L 287.188511 166.261295 
L 292.314733 165.884446 
L 297.440956 165.507598 
L 302.567178 165.130749 
L 307.6934 164.753901 
L 312.819622 164.377052 
L 317.945844 164.000204 
L 323.072067 163.623355 
L 328.198289 163.246506 
L 333.324511 162.869658 
L 338.450733 162.492809 
L 343.576956 162.115961 
L 348.703178 161.739112 
L 353.8294 161.362264 
L 358.955622 160.985415 
L 364.081844 160.608566 
L 369.208067 160.231718 
L 374.334289 159.854869 
L 379.460511 159.478021 
L 384.586733 159.101172 
L 389.712956 158.724324 
L 394.839178 158.347475 
L 399.9654 157.970626 
L 405.091622 157.593778 
L 410.217844 157.216929 
L 415.344067 156.840081 
L 420.470289 156.463232 
L 425.596511 156.086384 
L 430.722733 155.709535 
L 435.848956 155.332686 
L 440.975178 154.955838 
L 446.1014 154.578989 
L 451.227622 154.202141 
L 456.353844 153.825292 
L 461.480067 153.448444 
L 466.606289 153.071595 
L 471.732511 152.694746 
L 476.858733 152.317898 
L 481.984956 151.941049 
L 487.111178 151.564201 
L 492.2374 151.187352 
L 497.363622 150.810504 
L 502.489844 150.433655 
L 507.616067 150.056806 
L 512.742289 149.679958 
L 517.868511 149.303109 
L 522.994733 148.926261 
L 528.120956 148.549412 
L 533.247178 148.172564 
L 538.3734 147.795715 
L 543.499622 147.418866 
L 548.625844 147.042018 
L 553.752067 146.665169 
L 558.878289 146.288321 
L 564.004511 145.911472 
L 569.130733 145.534624 
L 574.256956 145.157775 
L 579.383178 144.780926 
L 584.5094 144.404078 
L 589.635622 144.027229 
L 594.761844 143.650381 
L 599.888067 143.273532 
L 605.014289 142.896683 
L 610.140511 142.519835 
L 615.266733 142.142986 
L 620.392956 141.766138 
L 625.519178 141.389289 
L 630.6454 141.012441 
" clip-path="url(#p2184194587)" style="fill: none; stroke: #ff0000; stroke-width: 2.25; stroke-linecap: square"/>
   </g>
   <g id="patch_3">
    <path d="M 55.055 528.28 
L 55.055 31.2 
" style="fill: none; stroke: #ffffff; stroke-linejoin: miter; stroke-linecap: square"/>
   </g>
   <g id="patch_4">
    <path d="M 697.455 528.28 
L 697.455 31.2 
" style="fill: none; stroke: #ffffff; stroke-linejoin: miter; stroke-linecap: square"/>
   </g>
   <g id="patch_5">
    <path d="M 55.055 528.28 
L 697.455 528.28 
" style="fill: none; stroke: #ffffff; stroke-linejoin: miter; stroke-linecap: square"/>
   </g>
   <g id="patch_6">
    <path d="M 55.055 31.2 
L 697.455 31.2 
" style="fill: none; stroke: #ffffff; stroke-linejoin: miter; stroke-linecap: square"/>
   </g>
   <g id="text_15">
    <g id="patch_7">
     <path d="M 87.175 462.213625 
L 341.785 462.213625 
Q 347.785 462.213625 347.785 456.213625 
L 347.785 431.1625 
Q 347.785 425.1625 341.785 425.1625 
L 87.175 425.1625 
Q 81.175 425.1625 81.175 431.1625 
L 81.175 456.213625 
Q 81.175 462.213625 87.175 462.213625 
z
" style="fill: #ffffff; opacity: 0.7; stroke: #eeeeee; stroke-width: 0.5; stroke-linejoin: miter"/>
    </g>
    <!-- Red shaded area: 95% confidence interval -->
    <g transform="translate(87.175 440.280625) scale(0.12 -0.12)">
     <defs>
      <path id="DejaVuSans-52" d="M 2841 2188 
Q 3044 2119 3236 1894 
Q 3428 1669 3622 1275 
L 4263 0 
L 3584 0 
L 2988 1197 
Q 2756 1666 2539 1819 
Q 2322 1972 1947 1972 
L 1259 1972 
L 1259 0 
L 628 0 
L 628 4666 
L 2053 4666 
Q 2853 4666 3247 4331 
Q 3641 3997 3641 3322 
Q 3641 2881 3436 2590 
Q 3231 2300 2841 2188 
z
M 1259 4147 
L 1259 2491 
L 2053 2491 
Q 2509 2491 2742 2702 
Q 2975 2913 2975 3322 
Q 2975 3731 2742 3939 
Q 2509 4147 2053 4147 
L 1259 4147 
z
" transform="scale(0.015625)"/>
      <path id="DejaVuSans-64" d="M 2906 2969 
L 2906 4863 
L 3481 4863 
L 3481 0 
L 2906 0 
L 2906 525 
Q 2725 213 2448 61 
Q 2172 -91 1784 -91 
Q 1150 -91 751 415 
Q 353 922 353 1747 
Q 353 2572 751 3078 
Q 1150 3584 1784 3584 
Q 2172 3584 2448 3432 
Q 2725 3281 2906 2969 
z
M 947 1747 
Q 947 1113 1208 752 
Q 1469 391 1925 391 
Q 2381 391 2643 752 
Q 2906 1113 2906 1747 
Q 2906 2381 2643 2742 
Q 2381 3103 1925 3103 
Q 1469 3103 1208 2742 
Q 947 2381 947 1747 
z
" transform="scale(0.015625)"/>
      <path id="DejaVuSans-3a" d="M 750 794 
L 1409 794 
L 1409 0 
L 750 0 
L 750 794 
z
M 750 3309 
L 1409 3309 
L 1409 2516 
L 750 2516 
L 750 3309 
z
" transform="scale(0.015625)"/>
      <path id="DejaVuSans-25" d="M 4653 2053 
Q 4381 2053 4226 1822 
Q 4072 1591 4072 1178 
Q 4072 772 4226 539 
Q 4381 306 4653 306 
Q 4919 306 5073 539 
Q 5228 772 5228 1178 
Q 5228 1588 5073 1820 
Q 4919 2053 4653 2053 
z
M 4653 2450 
Q 5147 2450 5437 2106 
Q 5728 1763 5728 1178 
Q 5728 594 5436 251 
Q 5144 -91 4653 -91 
Q 4153 -91 3862 251 
Q 3572 594 3572 1178 
Q 3572 1766 3864 2108 
Q 4156 2450 4653 2450 
z
M 1428 4353 
Q 1159 4353 1004 4120 
Q 850 3888 850 3481 
Q 850 3069 1003 2837 
Q 1156 2606 1428 2606 
Q 1700 2606 1854 2837 
Q 2009 3069 2009 3481 
Q 2009 3884 1853 4118 
Q 1697 4353 1428 4353 
z
M 4250 4750 
L 4750 4750 
L 1831 -91 
L 1331 -91 
L 4250 4750 
z
M 1428 4750 
Q 1922 4750 2215 4408 
Q 2509 4066 2509 3481 
Q 2509 2891 2217 2550 
Q 1925 2209 1428 2209 
Q 931 2209 642 2551 
Q 353 2894 353 3481 
Q 353 4063 643 4406 
Q 934 4750 1428 4750 
z
" transform="scale(0.015625)"/>
     </defs>
     <use xlink:href="#DejaVuSans-52"/>
     <use xlink:href="#DejaVuSans-65" x="64.982422"/>
     <use xlink:href="#DejaVuSans-64" x="126.505859"/>
     <use xlink:href="#DejaVuSans-20" x="189.982422"/>
     <use xlink:href="#DejaVuSans-73" x="221.769531"/>
     <use xlink:href="#DejaVuSans-68" x="273.869141"/>
     <use xlink:href="#DejaVuSans-61" x="337.248047"/>
     <use xlink:href="#DejaVuSans-64" x="398.527344"/>
     <use xlink:href="#DejaVuSans-65" x="462.003906"/>
     <use xlink:href="#DejaVuSans-64" x="523.527344"/>
     <use xlink:href="#DejaVuSans-20" x="587.003906"/>
     <use xlink:href="#DejaVuSans-61" x="618.791016"/>
     <use xlink:href="#DejaVuSans-72" x="680.070312"/>
     <use xlink:href="#DejaVuSans-65" x="718.933594"/>
     <use xlink:href="#DejaVuSans-61" x="780.457031"/>
     <use xlink:href="#DejaVuSans-3a" x="841.736328"/>
     <use xlink:href="#DejaVuSans-20" x="875.427734"/>
     <use xlink:href="#DejaVuSans-39" x="907.214844"/>
     <use xlink:href="#DejaVuSans-35" x="970.837891"/>
     <use xlink:href="#DejaVuSans-25" x="1034.460938"/>
     <use xlink:href="#DejaVuSans-20" x="1129.480469"/>
     <use xlink:href="#DejaVuSans-63" x="1161.267578"/>
     <use xlink:href="#DejaVuSans-6f" x="1216.248047"/>
     <use xlink:href="#DejaVuSans-6e" x="1277.429688"/>
     <use xlink:href="#DejaVuSans-66" x="1340.808594"/>
     <use xlink:href="#DejaVuSans-69" x="1376.013672"/>
     <use xlink:href="#DejaVuSans-64" x="1403.796875"/>
     <use xlink:href="#DejaVuSans-65" x="1467.273438"/>
     <use xlink:href="#DejaVuSans-6e" x="1528.796875"/>
     <use xlink:href="#DejaVuSans-63" x="1592.175781"/>
     <use xlink:href="#DejaVuSans-65" x="1647.15625"/>
     <use xlink:href="#DejaVuSans-20" x="1708.679688"/>
     <use xlink:href="#DejaVuSans-69" x="1740.466797"/>
     <use xlink:href="#DejaVuSans-6e" x="1768.25"/>
     <use xlink:href="#DejaVuSans-74" x="1831.628906"/>
     <use xlink:href="#DejaVuSans-65" x="1870.837891"/>
     <use xlink:href="#DejaVuSans-72" x="1932.361328"/>
     <use xlink:href="#DejaVuSans-76" x="1973.474609"/>
     <use xlink:href="#DejaVuSans-61" x="2032.654297"/>
     <use xlink:href="#DejaVuSans-6c" x="2093.933594"/>
    </g>
    <!-- around regression line -->
    <g transform="translate(87.175 453.718) scale(0.12 -0.12)">
     <defs>
      <path id="DejaVuSans-67" d="M 2906 1791 
Q 2906 2416 2648 2759 
Q 2391 3103 1925 3103 
Q 1463 3103 1205 2759 
Q 947 2416 947 1791 
Q 947 1169 1205 825 
Q 1463 481 1925 481 
Q 2391 481 2648 825 
Q 2906 1169 2906 1791 
z
M 3481 434 
Q 3481 -459 3084 -895 
Q 2688 -1331 1869 -1331 
Q 1566 -1331 1297 -1286 
Q 1028 -1241 775 -1147 
L 775 -588 
Q 1028 -725 1275 -790 
Q 1522 -856 1778 -856 
Q 2344 -856 2625 -561 
Q 2906 -266 2906 331 
L 2906 616 
Q 2728 306 2450 153 
Q 2172 0 1784 0 
Q 1141 0 747 490 
Q 353 981 353 1791 
Q 353 2603 747 3093 
Q 1141 3584 1784 3584 
Q 2172 3584 2450 3431 
Q 2728 3278 2906 2969 
L 2906 3500 
L 3481 3500 
L 3481 434 
z
" transform="scale(0.015625)"/>
     </defs>
     <use xlink:href="#DejaVuSans-61"/>
     <use xlink:href="#DejaVuSans-72" x="61.279297"/>
     <use xlink:href="#DejaVuSans-6f" x="100.142578"/>
     <use xlink:href="#DejaVuSans-75" x="161.324219"/>
     <use xlink:href="#DejaVuSans-6e" x="224.703125"/>
     <use xlink:href="#DejaVuSans-64" x="288.082031"/>
     <use xlink:href="#DejaVuSans-20" x="351.558594"/>
     <use xlink:href="#DejaVuSans-72" x="383.345703"/>
     <use xlink:href="#DejaVuSans-65" x="422.208984"/>
     <use xlink:href="#DejaVuSans-67" x="483.732422"/>
     <use xlink:href="#DejaVuSans-72" x="547.208984"/>
     <use xlink:href="#DejaVuSans-65" x="586.072266"/>
     <use xlink:href="#DejaVuSans-73" x="647.595703"/>
     <use xlink:href="#DejaVuSans-73" x="699.695312"/>
     <use xlink:href="#DejaVuSans-69" x="751.794922"/>
     <use xlink:href="#DejaVuSans-6f" x="779.578125"/>
     <use xlink:href="#DejaVuSans-6e" x="840.759766"/>
     <use xlink:href="#DejaVuSans-20" x="904.138672"/>
     <use xlink:href="#DejaVuSans-6c" x="935.925781"/>
     <use xlink:href="#DejaVuSans-69" x="963.708984"/>
     <use xlink:href="#DejaVuSans-6e" x="991.492188"/>
     <use xlink:href="#DejaVuSans-65" x="1054.871094"/>
    </g>
   </g>
   <g id="text_16">
    <g id="patch_8">
     <path d="M 87.175 62.149625 
L 239.39875 62.149625 
Q 242.99875 62.149625 242.99875 58.549625 
L 242.99875 46.935875 
Q 242.99875 43.335875 239.39875 43.335875 
L 87.175 43.335875 
Q 83.575 43.335875 83.575 46.935875 
L 83.575 58.549625 
Q 83.575 62.149625 87.175 62.149625 
z
" style="fill: #ffffff; opacity: 0.8; stroke: #808080; stroke-width: 0.5; stroke-linejoin: miter"/>
    </g>
    <!-- Pearson Correlation: 0.49 -->
    <g transform="translate(87.175 56.054) scale(0.12 -0.12)">
     <use xlink:href="#DejaVuSans-50"/>
     <use xlink:href="#DejaVuSans-65" x="56.677734"/>
     <use xlink:href="#DejaVuSans-61" x="118.201172"/>
     <use xlink:href="#DejaVuSans-72" x="179.480469"/>
     <use xlink:href="#DejaVuSans-73" x="220.59375"/>
     <use xlink:href="#DejaVuSans-6f" x="272.693359"/>
     <use xlink:href="#DejaVuSans-6e" x="333.875"/>
     <use xlink:href="#DejaVuSans-20" x="397.253906"/>
     <use xlink:href="#DejaVuSans-43" x="429.041016"/>
     <use xlink:href="#DejaVuSans-6f" x="498.865234"/>
     <use xlink:href="#DejaVuSans-72" x="560.046875"/>
     <use xlink:href="#DejaVuSans-72" x="599.410156"/>
     <use xlink:href="#DejaVuSans-65" x="638.273438"/>
     <use xlink:href="#DejaVuSans-6c" x="699.796875"/>
     <use xlink:href="#DejaVuSans-61" x="727.580078"/>
     <use xlink:href="#DejaVuSans-74" x="788.859375"/>
     <use xlink:href="#DejaVuSans-69" x="828.068359"/>
     <use xlink:href="#DejaVuSans-6f" x="855.851562"/>
     <use xlink:href="#DejaVuSans-6e" x="917.033203"/>
     <use xlink:href="#DejaVuSans-3a" x="980.412109"/>
     <use xlink:href="#DejaVuSans-20" x="1014.103516"/>
     <use xlink:href="#DejaVuSans-30" x="1045.890625"/>
     <use xlink:href="#DejaVuSans-2e" x="1109.513672"/>
     <use xlink:href="#DejaVuSans-34" x="1141.300781"/>
     <use xlink:href="#DejaVuSans-39" x="1204.923828"/>
    </g>
   </g>
   <g id="text_17">
    <g id="patch_9">
     <path d="M 128.1494 158.845185 
L 179.743775 158.845185 
Q 182.143775 158.845185 182.143775 156.445185 
L 182.143775 144.831435 
Q 182.143775 142.431435 179.743775 142.431435 
L 128.1494 142.431435 
Q 125.7494 142.431435 125.7494 144.831435 
L 125.7494 156.445185 
Q 125.7494 158.845185 128.1494 158.845185 
z
" style="fill: #ffffff; opacity: 0.7; stroke: #808080; stroke-width: 0.5; stroke-linejoin: miter"/>
    </g>
    <!-- MISTRAL -->
    <g transform="translate(128.1494 153.94956) scale(0.12 -0.12)">
     <defs>
      <path id="DejaVuSans-4d" d="M 628 4666 
L 1569 4666 
L 2759 1491 
L 3956 4666 
L 4897 4666 
L 4897 0 
L 4281 0 
L 4281 4097 
L 3078 897 
L 2444 897 
L 1241 4097 
L 1241 0 
L 628 0 
L 628 4666 
z
" transform="scale(0.015625)"/>
      <path id="DejaVuSans-49" d="M 628 4666 
L 1259 4666 
L 1259 0 
L 628 0 
L 628 4666 
z
" transform="scale(0.015625)"/>
      <path id="DejaVuSans-54" d="M -19 4666 
L 3928 4666 
L 3928 4134 
L 2272 4134 
L 2272 0 
L 1638 0 
L 1638 4134 
L -19 4134 
L -19 4666 
z
" transform="scale(0.015625)"/>
      <path id="DejaVuSans-4c" d="M 628 4666 
L 1259 4666 
L 1259 531 
L 3531 531 
L 3531 0 
L 628 0 
L 628 4666 
z
" transform="scale(0.015625)"/>
     </defs>
     <use xlink:href="#DejaVuSans-4d"/>
     <use xlink:href="#DejaVuSans-49" x="86.279297"/>
     <use xlink:href="#DejaVuSans-53" x="115.771484"/>
     <use xlink:href="#DejaVuSans-54" x="179.248047"/>
     <use xlink:href="#DejaVuSans-52" x="240.332031"/>
     <use xlink:href="#DejaVuSans-41" x="305.814453"/>
     <use xlink:href="#DejaVuSans-4c" x="374.222656"/>
    </g>
   </g>
   <g id="text_18">
    <g id="patch_10">
     <path d="M 391.5334 163.815985 
L 437.03965 163.815985 
Q 439.43965 163.815985 439.43965 161.415985 
L 439.43965 149.802235 
Q 439.43965 147.402235 437.03965 147.402235 
L 391.5334 147.402235 
Q 389.1334 147.402235 389.1334 149.802235 
L 389.1334 161.415985 
Q 389.1334 163.815985 391.5334 163.815985 
z
" style="fill: #ffffff; opacity: 0.7; stroke: #808080; stroke-width: 0.5; stroke-linejoin: miter"/>
    </g>
    <!-- QWEN3 -->
    <g transform="translate(391.5334 158.92036) scale(0.12 -0.12)">
     <defs>
      <path id="DejaVuSans-57" d="M 213 4666 
L 850 4666 
L 1831 722 
L 2809 4666 
L 3519 4666 
L 4500 722 
L 5478 4666 
L 6119 4666 
L 4947 0 
L 4153 0 
L 3169 4050 
L 2175 0 
L 1381 0 
L 213 4666 
z
" transform="scale(0.015625)"/>
      <path id="DejaVuSans-4e" d="M 628 4666 
L 1478 4666 
L 3547 763 
L 3547 4666 
L 4159 4666 
L 4159 0 
L 3309 0 
L 1241 3903 
L 1241 0 
L 628 0 
L 628 4666 
z
" transform="scale(0.015625)"/>
      <path id="DejaVuSans-33" d="M 2597 2516 
Q 3050 2419 3304 2112 
Q 3559 1806 3559 1356 
Q 3559 666 3084 287 
Q 2609 -91 1734 -91 
Q 1441 -91 1130 -33 
Q 819 25 488 141 
L 488 750 
Q 750 597 1062 519 
Q 1375 441 1716 441 
Q 2309 441 2620 675 
Q 2931 909 2931 1356 
Q 2931 1769 2642 2001 
Q 2353 2234 1838 2234 
L 1294 2234 
L 1294 2753 
L 1863 2753 
Q 2328 2753 2575 2939 
Q 2822 3125 2822 3475 
Q 2822 3834 2567 4026 
Q 2313 4219 1838 4219 
Q 1578 4219 1281 4162 
Q 984 4106 628 3988 
L 628 4550 
Q 988 4650 1302 4700 
Q 1616 4750 1894 4750 
Q 2613 4750 3031 4423 
Q 3450 4097 3450 3541 
Q 3450 3153 3228 2886 
Q 3006 2619 2597 2516 
z
" transform="scale(0.015625)"/>
     </defs>
     <use xlink:href="#DejaVuSans-51"/>
     <use xlink:href="#DejaVuSans-57" x="78.710938"/>
     <use xlink:href="#DejaVuSans-45" x="177.587891"/>
     <use xlink:href="#DejaVuSans-4e" x="240.771484"/>
     <use xlink:href="#DejaVuSans-33" x="315.576172"/>
    </g>
   </g>
   <g id="text_19">
    <g id="patch_11">
     <path d="M 442.9254 201.594065 
L 490.97415 201.594065 
Q 493.37415 201.594065 493.37415 199.194065 
L 493.37415 187.580315 
Q 493.37415 185.180315 490.97415 185.180315 
L 442.9254 185.180315 
Q 440.5254 185.180315 440.5254 187.580315 
L 440.5254 199.194065 
Q 440.5254 201.594065 442.9254 201.594065 
z
" style="fill: #ffffff; opacity: 0.7; stroke: #808080; stroke-width: 0.5; stroke-linejoin: miter"/>
    </g>
    <!-- LLAMA4 -->
    <g transform="translate(442.9254 196.69844) scale(0.12 -0.12)">
     <use xlink:href="#DejaVuSans-4c"/>
     <use xlink:href="#DejaVuSans-4c" x="55.712891"/>
     <use xlink:href="#DejaVuSans-41" x="113.675781"/>
     <use xlink:href="#DejaVuSans-4d" x="182.083984"/>
     <use xlink:href="#DejaVuSans-41" x="268.363281"/>
     <use xlink:href="#DejaVuSans-34" x="336.771484"/>
    </g>
   </g>
   <g id="text_20">
    <g id="patch_12">
     <path d="M 464.767 153.874385 
L 527.060125 153.874385 
Q 529.460125 153.874385 529.460125 151.474385 
L 529.460125 139.860635 
Q 529.460125 137.460635 527.060125 137.460635 
L 464.767 137.460635 
Q 462.367 137.460635 462.367 139.860635 
L 462.367 151.474385 
Q 462.367 153.874385 464.767 153.874385 
z
" style="fill: #ffffff; opacity: 0.7; stroke: #808080; stroke-width: 0.5; stroke-linejoin: miter"/>
    </g>
    <!-- DEEPSEEK -->
    <g transform="translate(464.767 148.97876) scale(0.12 -0.12)">
     <defs>
      <path id="DejaVuSans-44" d="M 1259 4147 
L 1259 519 
L 2022 519 
Q 2988 519 3436 956 
Q 3884 1394 3884 2338 
Q 3884 3275 3436 3711 
Q 2988 4147 2022 4147 
L 1259 4147 
z
M 628 4666 
L 1925 4666 
Q 3281 4666 3915 4102 
Q 4550 3538 4550 2338 
Q 4550 1131 3912 565 
Q 3275 0 1925 0 
L 628 0 
L 628 4666 
z
" transform="scale(0.015625)"/>
      <path id="DejaVuSans-4b" d="M 628 4666 
L 1259 4666 
L 1259 2694 
L 3353 4666 
L 4166 4666 
L 1850 2491 
L 4331 0 
L 3500 0 
L 1259 2247 
L 1259 0 
L 628 0 
L 628 4666 
z
" transform="scale(0.015625)"/>
     </defs>
     <use xlink:href="#DejaVuSans-44"/>
     <use xlink:href="#DejaVuSans-45" x="77.001953"/>
     <use xlink:href="#DejaVuSans-45" x="140.185547"/>
     <use xlink:href="#DejaVuSans-50" x="203.369141"/>
     <use xlink:href="#DejaVuSans-53" x="263.671875"/>
     <use xlink:href="#DejaVuSans-45" x="327.148438"/>
     <use xlink:href="#DejaVuSans-45" x="390.332031"/>
     <use xlink:href="#DejaVuSans-4b" x="453.515625"/>
    </g>
   </g>
   <g id="text_21">
    <g id="patch_13">
     <path d="M 616.3734 114.107985 
L 633.45465 114.107985 
Q 635.85465 114.107985 635.85465 111.707985 
L 635.85465 100.094235 
Q 635.85465 97.694235 633.45465 97.694235 
L 616.3734 97.694235 
Q 613.9734 97.694235 613.9734 100.094235 
L 613.9734 111.707985 
Q 613.9734 114.107985 616.3734 114.107985 
z
" style="fill: #ffffff; opacity: 0.7; stroke: #808080; stroke-width: 0.5; stroke-linejoin: miter"/>
    </g>
    <!-- O3 -->
    <g transform="translate(616.3734 109.21236) scale(0.12 -0.12)">
     <defs>
      <path id="DejaVuSans-4f" d="M 2522 4238 
Q 1834 4238 1429 3725 
Q 1025 3213 1025 2328 
Q 1025 1447 1429 934 
Q 1834 422 2522 422 
Q 3209 422 3611 934 
Q 4013 1447 4013 2328 
Q 4013 3213 3611 3725 
Q 3209 4238 2522 4238 
z
M 2522 4750 
Q 3503 4750 4090 4092 
Q 4678 3434 4678 2328 
Q 4678 1225 4090 567 
Q 3503 -91 2522 -91 
Q 1538 -91 948 565 
Q 359 1222 359 2328 
Q 359 3434 948 4092 
Q 1538 4750 2522 4750 
z
" transform="scale(0.015625)"/>
     </defs>
     <use xlink:href="#DejaVuSans-4f"/>
     <use xlink:href="#DejaVuSans-33" x="78.710938"/>
    </g>
   </g>
   <g id="text_22">
    <g id="patch_14">
     <path d="M 625.367 156.856865 
L 668.658875 156.856865 
Q 671.058875 156.856865 671.058875 154.456865 
L 671.058875 142.843115 
Q 671.058875 140.443115 668.658875 140.443115 
L 625.367 140.443115 
Q 622.967 140.443115 622.967 142.843115 
L 622.967 154.456865 
Q 622.967 156.856865 625.367 156.856865 
z
" style="fill: #ffffff; opacity: 0.7; stroke: #808080; stroke-width: 0.5; stroke-linejoin: miter"/>
    </g>
    <!-- GEMINI -->
    <g transform="translate(625.367 151.96124) scale(0.12 -0.12)">
     <use xlink:href="#DejaVuSans-47"/>
     <use xlink:href="#DejaVuSans-45" x="77.490234"/>
     <use xlink:href="#DejaVuSans-4d" x="140.673828"/>
     <use xlink:href="#DejaVuSans-49" x="226.953125"/>
     <use xlink:href="#DejaVuSans-4e" x="256.445312"/>
     <use xlink:href="#DejaVuSans-49" x="331.25"/>
    </g>
   </g>
   <g id="text_23">
    <g id="patch_15">
     <path d="M 633.0758 150.511625 
L 675.662675 150.511625 
Q 678.062675 150.511625 678.062675 148.111625 
L 678.062675 136.497875 
Q 678.062675 134.097875 675.662675 134.097875 
L 633.0758 134.097875 
Q 630.6758 134.097875 630.6758 136.497875 
L 630.6758 148.111625 
Q 630.6758 150.511625 633.0758 150.511625 
z
" style="fill: #ffffff; opacity: 0.7; stroke: #808080; stroke-width: 0.5; stroke-linejoin: miter"/>
    </g>
    <!-- GROK3 -->
    <g transform="translate(633.0758 145.616) scale(0.12 -0.12)">
     <use xlink:href="#DejaVuSans-47"/>
     <use xlink:href="#DejaVuSans-52" x="77.490234"/>
     <use xlink:href="#DejaVuSans-4f" x="146.972656"/>
     <use xlink:href="#DejaVuSans-4b" x="225.683594"/>
     <use xlink:href="#DejaVuSans-33" x="291.259766"/>
    </g>
   </g>
   <g id="text_24">
    <g id="patch_16">
     <path d="M 590.6454 132.002865 
L 639.794775 132.002865 
Q 642.194775 132.002865 642.194775 129.602865 
L 642.194775 117.989115 
Q 642.194775 115.589115 639.794775 115.589115 
L 590.6454 115.589115 
Q 588.2454 115.589115 588.2454 117.989115 
L 588.2454 129.602865 
Q 588.2454 132.002865 590.6454 132.002865 
z
" style="fill: #ffffff; opacity: 0.7; stroke: #808080; stroke-width: 0.5; stroke-linejoin: miter"/>
    </g>
    <!-- CLAUDE -->
    <g transform="translate(590.6454 127.10724) scale(0.12 -0.12)">
     <defs>
      <path id="DejaVuSans-55" d="M 556 4666 
L 1191 4666 
L 1191 1831 
Q 1191 1081 1462 751 
Q 1734 422 2344 422 
Q 2950 422 3222 751 
Q 3494 1081 3494 1831 
L 3494 4666 
L 4128 4666 
L 4128 1753 
Q 4128 841 3676 375 
Q 3225 -91 2344 -91 
Q 1459 -91 1007 375 
Q 556 841 556 1753 
L 556 4666 
z
" transform="scale(0.015625)"/>
     </defs>
     <use xlink:href="#DejaVuSans-43"/>
     <use xlink:href="#DejaVuSans-4c" x="69.824219"/>
     <use xlink:href="#DejaVuSans-41" x="127.787109"/>
     <use xlink:href="#DejaVuSans-55" x="196.195312"/>
     <use xlink:href="#DejaVuSans-44" x="269.388672"/>
     <use xlink:href="#DejaVuSans-45" x="346.390625"/>
    </g>
   </g>
   <g id="text_25">
    <!-- GPQA Benchmark vs. Causal Extraction Performance -->
    <g transform="translate(165.35625 25.2) scale(0.16 -0.16)">
     <use xlink:href="#DejaVuSans-47"/>
     <use xlink:href="#DejaVuSans-50" x="77.490234"/>
     <use xlink:href="#DejaVuSans-51" x="137.792969"/>
     <use xlink:href="#DejaVuSans-41" x="216.503906"/>
     <use xlink:href="#DejaVuSans-20" x="284.912109"/>
     <use xlink:href="#DejaVuSans-42" x="316.699219"/>
     <use xlink:href="#DejaVuSans-65" x="385.302734"/>
     <use xlink:href="#DejaVuSans-6e" x="446.826172"/>
     <use xlink:href="#DejaVuSans-63" x="510.205078"/>
     <use xlink:href="#DejaVuSans-68" x="565.185547"/>
     <use xlink:href="#DejaVuSans-6d" x="628.564453"/>
     <use xlink:href="#DejaVuSans-61" x="725.976562"/>
     <use xlink:href="#DejaVuSans-72" x="787.255859"/>
     <use xlink:href="#DejaVuSans-6b" x="828.369141"/>
     <use xlink:href="#DejaVuSans-20" x="886.279297"/>
     <use xlink:href="#DejaVuSans-76" x="918.066406"/>
     <use xlink:href="#DejaVuSans-73" x="977.246094"/>
     <use xlink:href="#DejaVuSans-2e" x="1029.345703"/>
     <use xlink:href="#DejaVuSans-20" x="1061.132812"/>
     <use xlink:href="#DejaVuSans-43" x="1092.919922"/>
     <use xlink:href="#DejaVuSans-61" x="1162.744141"/>
     <use xlink:href="#DejaVuSans-75" x="1224.023438"/>
     <use xlink:href="#DejaVuSans-73" x="1287.402344"/>
     <use xlink:href="#DejaVuSans-61" x="1339.501953"/>
     <use xlink:href="#DejaVuSans-6c" x="1400.78125"/>
     <use xlink:href="#DejaVuSans-20" x="1428.564453"/>
     <use xlink:href="#DejaVuSans-45" x="1460.351562"/>
     <use xlink:href="#DejaVuSans-78" x="1523.535156"/>
     <use xlink:href="#DejaVuSans-74" x="1582.714844"/>
     <use xlink:href="#DejaVuSans-72" x="1621.923828"/>
     <use xlink:href="#DejaVuSans-61" x="1663.037109"/>
     <use xlink:href="#DejaVuSans-63" x="1724.316406"/>
     <use xlink:href="#DejaVuSans-74" x="1779.296875"/>
     <use xlink:href="#DejaVuSans-69" x="1818.505859"/>
     <use xlink:href="#DejaVuSans-6f" x="1846.289062"/>
     <use xlink:href="#DejaVuSans-6e" x="1907.470703"/>
     <use xlink:href="#DejaVuSans-20" x="1970.849609"/>
     <use xlink:href="#DejaVuSans-50" x="2002.636719"/>
     <use xlink:href="#DejaVuSans-65" x="2059.314453"/>
     <use xlink:href="#DejaVuSans-72" x="2120.837891"/>
     <use xlink:href="#DejaVuSans-66" x="2161.951172"/>
     <use xlink:href="#DejaVuSans-6f" x="2197.15625"/>
     <use xlink:href="#DejaVuSans-72" x="2258.337891"/>
     <use xlink:href="#DejaVuSans-6d" x="2297.701172"/>
     <use xlink:href="#DejaVuSans-61" x="2395.113281"/>
     <use xlink:href="#DejaVuSans-6e" x="2456.392578"/>
     <use xlink:href="#DejaVuSans-63" x="2519.771484"/>
     <use xlink:href="#DejaVuSans-65" x="2574.751953"/>
    </g>
   </g>
   <g id="legend_1">
    <g id="patch_17">
     <path d="M 534.7725 522.28 
L 689.055 522.28 
Q 691.455 522.28 691.455 519.88 
L 691.455 503.46625 
Q 691.455 501.06625 689.055 501.06625 
L 534.7725 501.06625 
Q 532.3725 501.06625 532.3725 503.46625 
L 532.3725 519.88 
Q 532.3725 522.28 534.7725 522.28 
z
" style="fill: #e5e5e5; opacity: 0.8; stroke: #cccccc; stroke-width: 0.5; stroke-linejoin: miter"/>
    </g>
    <g id="PathCollection_2">
     <g>
      <use xlink:href="#mbbfd55cdc3" x="549.1725" y="511.834375" style="fill: #0000ff; stroke: #0000ff; stroke-width: 0.5"/>
     </g>
    </g>
    <g id="text_26">
     <!-- Model Performance -->
     <g transform="translate(570.7725 514.984375) scale(0.12 -0.12)">
      <use xlink:href="#DejaVuSans-4d"/>
      <use xlink:href="#DejaVuSans-6f" x="86.279297"/>
      <use xlink:href="#DejaVuSans-64" x="147.460938"/>
      <use xlink:href="#DejaVuSans-65" x="210.9375"/>
      <use xlink:href="#DejaVuSans-6c" x="272.460938"/>
      <use xlink:href="#DejaVuSans-20" x="300.244141"/>
      <use xlink:href="#DejaVuSans-50" x="332.03125"/>
      <use xlink:href="#DejaVuSans-65" x="388.708984"/>
      <use xlink:href="#DejaVuSans-72" x="450.232422"/>
      <use xlink:href="#DejaVuSans-66" x="491.345703"/>
      <use xlink:href="#DejaVuSans-6f" x="526.550781"/>
      <use xlink:href="#DejaVuSans-72" x="587.732422"/>
      <use xlink:href="#DejaVuSans-6d" x="627.095703"/>
      <use xlink:href="#DejaVuSans-61" x="724.507812"/>
      <use xlink:href="#DejaVuSans-6e" x="785.787109"/>
      <use xlink:href="#DejaVuSans-63" x="849.166016"/>
      <use xlink:href="#DejaVuSans-65" x="904.146484"/>
     </g>
    </g>
   </g>
  </g>
 </g>
 <defs>
  <clipPath id="p2184194587">
   <rect x="55.055" y="31.2" width="642.4" height="497.08"/>
  </clipPath>
 </defs>
</svg>
